Coordinates
version=1
nRows=17
nColumns=24
inDegrees=yes

Units are S.I. units (second, meters, Newtons, ...)
Angles are in degrees.

endheader
time	pelvis_tilt	pelvis_list	pelvis_rotation	pelvis_tx	pelvis_ty	pelvis_tz	hip_flexion_r	hip_adduction_r	hip_rotation_r	knee_angle_r	ankle_angle_r	subtalar_angle_r	mtp_angle_r	hip_flexion_l	hip_adduction_l	hip_rotation_l	knee_angle_l	ankle_angle_l	subtalar_angle_l	mtp_angle_l	lumbar_extension	lumbar_bending	lumbar_rotation
      0.30400000	      1.24122972	      1.81177732	     -1.65235890	     -0.86781036	      1.05498535	      0.28450701	     23.31804875	     -0.79867989	     -5.47133072	     -5.00324213	      4.89638661	      3.00288569	     10.71155603	    -16.43873580	      3.70478976	      2.16448919	     -6.82307823	     18.47301779	      6.48743513	      2.83091194	    -13.12202947	     -1.76191769	     -3.08192829
      0.30816667	      1.31439843	      1.76875850	     -1.56024387	     -0.86166468	      1.05410261	      0.28467036	     23.26871162	     -0.71317448	     -5.27488801	     -5.36902347	      4.87860106	      2.87167045	     10.71619457	    -16.65162377	      3.63641987	      2.22386775	     -7.31396721	     18.67604994	      6.55651940	      2.86188079	    -13.17482711	     -1.60764991	     -3.09827169
      0.31233333	      1.35995056	      1.71414400	     -1.47945823	     -0.85546471	      1.05318985	      0.28487585	     23.24291215	     -0.60677635	     -5.02880916	     -5.78154023	      4.76472132	      2.58746050	     10.73288170	    -16.78844273	      3.54826189	      2.12776914	     -7.90657778	     18.90043342	      6.79541495	      2.93113671	    -13.17920559	     -1.44152524	     -3.12982752
      0.31650000	      1.41583224	      1.66460235	     -1.38955330	     -0.84923750	      1.05232854	      0.28505928	     23.20512169	     -0.51241413	     -4.79431470	     -6.25032257	      4.63886846	      2.32493216	     10.76232610	    -16.92721332	      3.46390452	      2.07947311	     -8.51648256	     19.09701371	      6.99952537	      3.02453282	    -13.19766209	     -1.27535188	     -3.13992513
      0.32066667	      1.46384497	      1.60787131	     -1.29564973	     -0.84296572	      1.05147636	      0.28524725	     23.16884020	     -0.41132833	     -4.55433420	     -6.75592759	      4.45851423	      2.01117282	     10.80300827	    -17.03730496	      3.36628729	      2.00694338	     -9.17968592	     19.28260569	      7.22711068	      3.14452036	    -13.20464345	     -1.09636116	     -3.16234885
      0.32483333	      1.50641004	      1.54963010	     -1.19645130	     -0.83667038	      1.05066303	      0.28543762	     23.13166010	     -0.30948856	     -4.30493388	     -7.29143736	      4.21349767	      1.63483196	     10.85196088	    -17.11297771	      3.26092919	      1.91124730	     -9.89658105	     19.45220240	      7.49977148	      3.29343391	    -13.19845510	     -0.91545322	     -3.17931844
      0.32900000	      1.57358546	      1.48933947	     -1.09090876	     -0.83036417	      1.04992695	      0.28562205	     23.06323687	     -0.20990347	     -4.07190059	     -7.85283856	      3.91683629	      1.23279533	     10.90477921	    -17.19625595	      3.14752422	      1.80973408	    -10.64950020	     19.59092256	      7.79336159	      3.46365674	    -13.22450115	     -0.72910185	     -3.20471131
      0.33316667	      1.62356834	      1.42813122	     -0.98782825	     -0.82402563	      1.04918543	      0.28582441	     23.01058737	     -0.10731217	     -3.82852937	     -8.43954097	      3.57175805	      0.79441922	     10.96876441	    -17.23133964	      3.02687120	      1.66587715	    -11.47250381	     19.71379713	      8.12597788	      3.68345920	    -13.22224782	     -0.54044189	     -3.22033541
      0.33733333	      1.67466285	      1.35979874	     -0.87515952	     -0.81766245	      1.04850434	      0.28601162	     22.94779248	     -0.00239487	     -3.60108000	     -9.03452434	      3.16614076	      0.31820916	     11.03118422	    -17.24462291	      2.89009566	      1.50446233	    -12.33799226	     19.80478942	      8.49683601	      3.92556103	    -13.21978256	     -0.33906353	     -3.23864667
      0.34150000	      1.69994852	      1.29791258	     -0.76102209	     -0.81127760	      1.04782479	      0.28621722	     22.91528056	      0.09519141	     -3.38409255	     -9.65462072	      2.72680543	     -0.16567663	     11.09246999	    -17.19619133	      2.75159780	      1.32008161	    -13.27178278	     19.86534582	      8.89691812	      4.19816393	    -13.18007727	     -0.14746747	     -3.25480849
      0.34566667	      1.74158993	      1.23603398	     -0.65057782	     -0.80490742	      1.04720779	      0.28644173	     22.86746712	      0.19233635	     -3.17340423	    -10.29208828	      2.25313985	     -0.66512880	     11.15357114	    -17.13258305	      2.60378990	      1.08530865	    -14.26590811	     19.89506159	      9.35740628	      4.52687517	    -13.16782077	      0.04312200	     -3.26221290
      0.34983333	      1.80079157	      1.15474206	     -0.53297973	     -0.79850380	      1.04668646	      0.28665617	     22.79068561	      0.30401255	     -2.98970561	    -10.92731285	      1.74817021	     -1.17545326	     11.21108200	    -17.06476657	      2.42569521	      0.83470455	    -15.30835438	     19.87900108	      9.83584880	      4.90984316	    -13.16894001	      0.26093741	     -3.26905648
      0.35400000	      1.85796717	      1.07929629	     -0.41545558	     -0.79213644	      1.04620284	      0.28688849	     22.72455583	      0.40779606	     -2.82195103	    -11.58470404	      1.23809869	     -1.68063417	     11.25747157	    -16.95827184	      2.24355357	      0.56152333	    -16.41509352	     19.81581222	     10.34720215	      5.33520572	    -13.17238721	      0.46566554	     -3.26893641
      0.35816667	      1.89149282	      1.01569079	     -0.30461244	     -0.78572976	      1.04573725	      0.28712477	     22.70745182	      0.48911628	     -2.74279017	    -12.30365996	      0.76397603	     -2.02253154	     11.69247561	    -16.80535857	      2.06628515	      0.27233444	    -17.54382906	     19.57474835	     10.84529942	      9.68734574	    -13.14777800	      0.65022730	     -3.17304043
      0.36233333	      1.94441302	      0.94056242	     -0.17769298	     -0.77938628	      1.04537309	      0.28738350	     22.64424128	      0.58995969	     -2.56307253	    -12.97494180	      0.26130435	     -2.60279536	     11.66593317	    -16.62843338	      1.86659010	      0.02052386	    -18.76207820	     19.40463818	     11.29525613	      9.79139936	    -13.14716391	      0.86380089	     -3.26393242
      0.36650000	      1.98070258	      0.85928946	     -0.05625195	     -0.77301117	      1.04503602	      0.28765577	     22.61249737	      0.68925762	     -2.46091092	    -13.68672285	     -0.17614545	     -3.03198451	     11.63220978	    -16.39277160	      1.64189558	     -0.31780974	    -20.05485717	     19.17454770	     11.87943840	      9.97233701	    -13.12074342	      1.06778080	     -3.23622011
      0.37066667	      2.03590993	      0.77405082	      0.06436540	     -0.76668114	      1.04478950	      0.28794811	     22.56561796	      0.79091537	     -2.37304417	    -14.41256130	     -0.57186947	     -3.44452664	     11.58862642	    -16.14594607	      1.40105523	     -0.65873720	    -21.39191753	     18.86742115	     12.46997766	     10.21805261	    -13.12480240	      1.27911996	     -3.21694594
